<?xml version="1.0" encoding="utf-8"?>
<COLLADA xmlns="http://www.collada.org/2005/11/COLLADASchema" version="1.4.1" xmlns:xsi="http://www.w3.org/2001/XMLSchema-instance">
  <asset>
    <contributor>
      <author>Blender User</author>
      <authoring_tool>Blender 4.2.0 commit date:2024-07-16, commit time:06:20, hash:a51f293548ad</authoring_tool>
    </contributor>
    <created>2026-08-02T01:19:17</created>
    <modified>2026-08-02T01:19:17</modified>
    <unit name="meter" meter="1"/>
    <up_axis>Z_UP</up_axis>
  </asset>
  <library_images/>
  <library_geometries>
    <geometry id="L_Aileron-mesh" name="L_Aileron">
      <mesh>
        <source id="L_Aileron-mesh-positions">
          <float_array id="L_Aileron-mesh-positions-array" count="24">0.05314964 -0.003153443 -0.001735866 0.05308866 -0.005657255 -0.001731991 -5.87411e-4 0.006222963 0.00245738 -5.87233e-4 -0.00612539 0.00245279 -5.90739e-4 0.005500495 0.2482009 -5.90582e-4 -0.005402982 0.2481968 0.0482611 -0.002984821 0.2443889 0.04821234 -0.004986763 0.2443919</float_array>
          <technique_common>
            <accessor source="#L_Aileron-mesh-positions-array" count="8" stride="3">
              <param name="X" type="float"/>
              <param name="Y" type="float"/>
              <param name="Z" type="float"/>
            </accessor>
          </technique_common>
        </source>
        <source id="L_Aileron-mesh-normals">
          <float_array id="L_Aileron-mesh-normals-array" count="24">0.6097888 0.5108801 -0.6059366 0.5569255 -0.5771175 -0.5973019 -0.5463181 0.6362013 -0.5447794 -0.5945493 -0.5852279 -0.5513796 -0.5113489 0.6228276 0.5921218 -0.5544011 -0.5751544 0.601529 0.6427509 0.5177724 0.5646088 0.5861443 -0.5851448 0.5603931</float_array>
          <technique_common>
            <accessor source="#L_Aileron-mesh-normals-array" count="8" stride="3">
              <param name="X" type="float"/>
              <param name="Y" type="float"/>
              <param name="Z" type="float"/>
            </accessor>
          </technique_common>
        </source>
        <vertices id="L_Aileron-mesh-vertices">
          <input semantic="POSITION" source="#L_Aileron-mesh-positions"/>
        </vertices>
        <triangles count="12">
          <input semantic="VERTEX" source="#L_Aileron-mesh-vertices" offset="0"/>
          <input semantic="NORMAL" source="#L_Aileron-mesh-normals" offset="1"/>
          <p>0 0 1 1 2 2 2 2 1 1 3 3 4 4 5 5 6 6 6 6 5 5 7 7 7 7 5 5 1 1 1 1 5 5 3 3 3 3 5 5 2 2 2 2 5 5 4 4 0 0 6 6 1 1 1 1 6 6 7 7 4 4 6 6 2 2 2 2 6 6 0 0</p>
        </triangles>
      </mesh>
    </geometry>
  </library_geometries>
  <library_visual_scenes>
    <visual_scene id="Scene" name="Scene">
      <node id="L_Aileron" name="L_Aileron" type="NODE">
        <matrix sid="transform">1 0 0 0 0 1 0 0 0 0 1 0 0 0 0 1</matrix>
        <instance_geometry url="#L_Aileron-mesh" name="L_Aileron"/>
      </node>
    </visual_scene>
  </library_visual_scenes>
  <scene>
    <instance_visual_scene url="#Scene"/>
  </scene>
</COLLADA>