<?xml version="1.0" encoding="utf-8"?>
<COLLADA xmlns="http://www.collada.org/2005/11/COLLADASchema" version="1.4.1" xmlns:xsi="http://www.w3.org/2001/XMLSchema-instance">
  <asset>
    <contributor>
      <author>Blender User</author>
      <authoring_tool>Blender 4.2.0 commit date:2024-07-16, commit time:06:20, hash:a51f293548ad</authoring_tool>
    </contributor>
    <created>2026-08-02T04:02:21</created>
    <modified>2026-08-02T04:02:21</modified>
    <unit name="meter" meter="1"/>
    <up_axis>Z_UP</up_axis>
  </asset>
  <library_images/>
  <library_geometries>
    <geometry id="L_Rudder-mesh" name="L_Rudder">
      <mesh>
        <source id="L_Rudder-mesh-positions">
          <float_array id="L_Rudder-mesh-positions-array" count="24">-0.01982605 -0.003710508 -0.2363193 -0.01982605 -0.003549456 -0.2363193 0.0060696 -0.006243824 -0.2223991 0.006069779 -0.001019477 -0.2223993 -0.02586841 -0.003509283 -0.01825499 -0.02586841 -0.003756523 -0.01825499 0.008659303 -3.99249e-5 3.04937e-4 0.008659124 -0.007223069 3.0527e-4</float_array>
          <technique_common>
            <accessor source="#L_Rudder-mesh-positions-array" count="8" stride="3">
              <param name="X" type="float"/>
              <param name="Y" type="float"/>
              <param name="Z" type="float"/>
            </accessor>
          </technique_common>
        </source>
        <source id="L_Rudder-mesh-normals">
          <float_array id="L_Rudder-mesh-normals-array" count="24">-0.4313256 -0.5327787 -0.7280833 -0.4312798 0.5327101 -0.7281605 0.645936 -0.6414399 -0.4139103 0.6460672 0.6412143 -0.4140549 -0.7193112 0.5698231 0.3973576 -0.7192592 -0.5699348 0.3972917 0.4146717 0.5800062 0.7011706 0.4146348 -0.5800454 0.70116</float_array>
          <technique_common>
            <accessor source="#L_Rudder-mesh-normals-array" count="8" stride="3">
              <param name="X" type="float"/>
              <param name="Y" type="float"/>
              <param name="Z" type="float"/>
            </accessor>
          </technique_common>
        </source>
        <vertices id="L_Rudder-mesh-vertices">
          <input semantic="POSITION" source="#L_Rudder-mesh-positions"/>
        </vertices>
        <triangles count="12">
          <input semantic="VERTEX" source="#L_Rudder-mesh-vertices" offset="0"/>
          <input semantic="NORMAL" source="#L_Rudder-mesh-normals" offset="1"/>
          <p>0 0 1 1 2 2 2 2 1 1 3 3 4 4 5 5 6 6 6 6 5 5 7 7 3 3 6 6 2 2 2 2 6 6 7 7 4 4 6 6 1 1 1 1 6 6 3 3 7 7 5 5 2 2 2 2 5 5 0 0 0 0 5 5 1 1 1 1 5 5 4 4</p>
        </triangles>
      </mesh>
    </geometry>
  </library_geometries>
  <library_visual_scenes>
    <visual_scene id="Scene" name="Scene">
      <node id="L_Rudder" name="L_Rudder" type="NODE">
        <matrix sid="transform">1 0 0 0 0 1 0 0 0 0 1 0 0 0 0 1</matrix>
        <instance_geometry url="#L_Rudder-mesh" name="L_Rudder"/>
      </node>
    </visual_scene>
  </library_visual_scenes>
  <scene>
    <instance_visual_scene url="#Scene"/>
  </scene>
</COLLADA>