<?xml version="1.0" encoding="utf-8"?>
<COLLADA xmlns="http://www.collada.org/2005/11/COLLADASchema" version="1.4.1" xmlns:xsi="http://www.w3.org/2001/XMLSchema-instance">
  <asset>
    <contributor>
      <author>Blender User</author>
      <authoring_tool>Blender 4.2.0 commit date:2024-07-16, commit time:06:20, hash:a51f293548ad</authoring_tool>
    </contributor>
    <created>2026-08-02T01:28:18</created>
    <modified>2026-08-02T01:28:18</modified>
    <unit name="meter" meter="1"/>
    <up_axis>Z_UP</up_axis>
  </asset>
  <library_images/>
  <library_geometries>
    <geometry id="R_Aileron-mesh" name="R_Aileron">
      <mesh>
        <source id="R_Aileron-mesh-positions">
          <float_array id="R_Aileron-mesh-positions-array" count="24">-0.04820901 -0.003381371 0.2442755 -0.04814374 -0.005382835 0.2442781 5.55429e-4 0.005506098 0.2482851 6.4544e-4 -0.005396962 0.2482775 0.001525461 0.006317913 0.002543807 0.001627385 -0.006030023 0.002535104 -0.05211508 -0.003500878 -0.001866757 -0.05203342 -0.006004095 -0.001863539</float_array>
          <technique_common>
            <accessor source="#R_Aileron-mesh-positions-array" count="8" stride="3">
              <param name="X" type="float"/>
              <param name="Y" type="float"/>
              <param name="Z" type="float"/>
            </accessor>
          </technique_common>
        </source>
        <source id="R_Aileron-mesh-normals">
          <float_array id="R_Aileron-mesh-normals-array" count="24">-0.6492504 0.5122847 0.562173 -0.5835178 -0.5901672 0.5578618 0.5038399 0.6268323 0.5943288 0.5567189 -0.5707955 0.6035367 0.5431865 0.6409289 -0.5423639 0.6015617 -0.5800852 -0.5492038 -0.6115709 0.5060538 -0.6081864 -0.5497387 -0.5815015 -0.5997029</float_array>
          <technique_common>
            <accessor source="#R_Aileron-mesh-normals-array" count="8" stride="3">
              <param name="X" type="float"/>
              <param name="Y" type="float"/>
              <param name="Z" type="float"/>
            </accessor>
          </technique_common>
        </source>
        <vertices id="R_Aileron-mesh-vertices">
          <input semantic="POSITION" source="#R_Aileron-mesh-positions"/>
        </vertices>
        <triangles count="12">
          <input semantic="VERTEX" source="#R_Aileron-mesh-vertices" offset="0"/>
          <input semantic="NORMAL" source="#R_Aileron-mesh-normals" offset="1"/>
          <p>0 0 1 1 2 2 2 2 1 1 3 3 4 4 5 5 6 6 6 6 5 5 7 7 3 3 5 5 2 2 2 2 5 5 4 4 7 7 5 5 1 1 1 1 5 5 3 3 4 4 6 6 2 2 2 2 6 6 0 0 0 0 6 6 1 1 1 1 6 6 7 7</p>
        </triangles>
      </mesh>
    </geometry>
  </library_geometries>
  <library_visual_scenes>
    <visual_scene id="Scene" name="Scene">
      <node id="R_Aileron" name="R_Aileron" type="NODE">
        <matrix sid="transform">1 0 0 0 0 1 0 0 0 0 1 0 0 0 0 1</matrix>
        <instance_geometry url="#R_Aileron-mesh" name="R_Aileron"/>
      </node>
    </visual_scene>
  </library_visual_scenes>
  <scene>
    <instance_visual_scene url="#Scene"/>
  </scene>
</COLLADA>