<?xml version="1.0" encoding="utf-8"?>
<COLLADA xmlns="http://www.collada.org/2005/11/COLLADASchema" version="1.4.1" xmlns:xsi="http://www.w3.org/2001/XMLSchema-instance">
  <asset>
    <contributor>
      <author>Blender User</author>
      <authoring_tool>Blender 4.2.0 commit date:2024-07-16, commit time:06:20, hash:a51f293548ad</authoring_tool>
    </contributor>
    <created>2026-08-02T01:30:00</created>
    <modified>2026-08-02T01:30:00</modified>
    <unit name="meter" meter="1"/>
    <up_axis>Z_UP</up_axis>
  </asset>
  <library_images/>
  <library_geometries>
    <geometry id="R_Rudder-mesh" name="R_Rudder">
      <mesh>
        <source id="R_Rudder-mesh-positions">
          <float_array id="R_Rudder-mesh-positions-array" count="24">-0.02524405 -8.04188e-5 -0.2363209 -0.02524399 8.06055e-5 -0.2363209 7.05819e-4 -0.002612113 -0.2225023 7.06046e-4 0.002612173 -0.2225021 -0.03043407 1.26962e-4 -0.01823467 -0.03043407 -1.20285e-4 -0.01823467 0.004166007 0.00359106 1.90467e-4 0.004165709 -0.003592014 1.90131e-4</float_array>
          <technique_common>
            <accessor source="#R_Rudder-mesh-positions-array" count="8" stride="3">
              <param name="X" type="float"/>
              <param name="Y" type="float"/>
              <param name="Z" type="float"/>
            </accessor>
          </technique_common>
        </source>
        <source id="R_Rudder-mesh-normals">
          <float_array id="R_Rudder-mesh-normals-array" count="24">-0.434135 -0.5327956 -0.7263993 -0.4341334 0.5327156 -0.7264588 0.6443244 -0.6414202 -0.4164449 0.6444263 0.6412483 -0.4165518 -0.7176995 0.5698795 0.400181 -0.7177498 -0.5698884 0.4000782 0.4174292 0.5799434 0.6995847 0.4173491 -0.5801128 0.6994919</float_array>
          <technique_common>
            <accessor source="#R_Rudder-mesh-normals-array" count="8" stride="3">
              <param name="X" type="float"/>
              <param name="Y" type="float"/>
              <param name="Z" type="float"/>
            </accessor>
          </technique_common>
        </source>
        <vertices id="R_Rudder-mesh-vertices">
          <input semantic="POSITION" source="#R_Rudder-mesh-positions"/>
        </vertices>
        <triangles count="12">
          <input semantic="VERTEX" source="#R_Rudder-mesh-vertices" offset="0"/>
          <input semantic="NORMAL" source="#R_Rudder-mesh-normals" offset="1"/>
          <p>0 0 1 1 2 2 2 2 1 1 3 3 4 4 5 5 6 6 6 6 5 5 7 7 3 3 6 6 2 2 2 2 6 6 7 7 4 4 6 6 1 1 1 1 6 6 3 3 7 7 5 5 2 2 2 2 5 5 0 0 0 0 5 5 1 1 1 1 5 5 4 4</p>
        </triangles>
      </mesh>
    </geometry>
  </library_geometries>
  <library_visual_scenes>
    <visual_scene id="Scene" name="Scene">
      <node id="R_Rudder" name="R_Rudder" type="NODE">
        <matrix sid="transform">1 0 0 0 0 1 0 0 0 0 1 0 0 0 0 1</matrix>
        <instance_geometry url="#R_Rudder-mesh" name="R_Rudder"/>
      </node>
    </visual_scene>
  </library_visual_scenes>
  <scene>
    <instance_visual_scene url="#Scene"/>
  </scene>
</COLLADA>