<?xml version="1.0" encoding="utf-8"?>
<COLLADA xmlns="http://www.collada.org/2005/11/COLLADASchema" version="1.4.1" xmlns:xsi="http://www.w3.org/2001/XMLSchema-instance">
  <asset>
    <contributor>
      <author>Blender User</author>
      <authoring_tool>Blender 4.2.0 commit date:2024-07-16, commit time:06:20, hash:a51f293548ad</authoring_tool>
    </contributor>
    <created>2026-08-02T01:30:21</created>
    <modified>2026-08-02T01:30:21</modified>
    <unit name="meter" meter="1"/>
    <up_axis>Z_UP</up_axis>
  </asset>
  <library_images/>
  <library_geometries>
    <geometry id="R_Tilt-mesh" name="R_Tilt">
      <mesh>
        <source id="R_Tilt-mesh-positions">
          <float_array id="R_Tilt-mesh-positions-array" count="534">-0.009932339 0.01883906 0.01599997 -0.00999999 0.01999998 0.01599997 -0.00999999 0 0.01599997 0.00999999 0 0.01599997 0.00999999 0.01999998 0.01599997 0.009730398 0.01769381 0.01599997 0.008936285 0.01551198 0.01599997 0.007660388 0.01357209 0.01599997 0.00597155 0.01197874 0.01599997 -0.002867996 0.01042008 0.01599997 -0.004999995 0.01133972 0.01599997 -0.006862401 0.01272624 0.01599997 0.003960788 0.01081782 0.01599997 0.001736462 0.01015192 0.01599997 -5.81448e-4 0.01001691 0.01599997 -0.008354842 0.0145049 0.01599997 -0.00939691 0.01657974 0.01599997 -0.00999999 0 -0.008999943 0.00999999 0 -0.008999943 4.33542e-4 0 -0.005232036 -0.001288771 0 -0.005089342 -0.002871453 0 -0.004395067 -0.00414294 0 -0.003224611 0.002108871 0 0.00480777 0.003555715 0 0.0038625 -0.004965484 0 -0.001704633 -0.005249977 0 0 -0.004965484 0 0.001704633 -0.00414294 0 0.003224611 0.004617214 0 -0.002498686 0.003555715 0 -0.0038625 0.002108871 0 -0.00480777 -0.002871453 0 0.004395067 -0.001288771 0 0.005089342 4.33542e-4 0 0.005232036 0.004617214 0 0.002498686 0.005178391 0 8.64121e-4 0.005178391 0 -8.64121e-4 -0.00999999 0.002999961 0.01399999 -0.00999999 0.002999961 -0.008999943 -0.00999999 0.037 0.01399999 -0.00999999 0.03999996 0.01599997 -0.00999999 0.037 -0.008999943 -0.00999999 0.03999996 -0.008999943 0.003555715 0.03999996 -0.0038625 0.004617214 0.03999996 -0.002498686 0.00999999 0.03999996 -0.008999943 0.005178391 0.03999996 -8.64121e-4 0.005178391 0.03999996 8.64121e-4 0.00999999 0.03999996 0.01599997 0.004617214 0.03999996 0.002498686 0.003555715 0.03999996 0.0038625 -0.001288771 0.03999996 -0.005089342 4.33542e-4 0.03999996 -0.005232036 0.002108871 0.03999996 -0.00480777 0.002108871 0.03999996 0.00480777 4.33542e-4 0.03999996 0.005232036 -0.001288771 0.03999996 0.005089342 -0.002871453 0.03999996 0.004395067 -0.004965484 0.03999996 -0.001704633 -0.00414294 0.03999996 -0.003224611 -0.002871453 0.03999996 -0.004395067 -0.00414294 0.03999996 0.003224611 -0.004965484 0.03999996 0.001704633 -0.005249977 0.03999996 0 0.00999999 0.037 0.01399999 0.00999999 0.037 -0.008999943 0.00999999 0.002999961 -0.008999943 0.00999999 0.002999961 0.01399999 -0.00939691 0.02342015 0.01599997 -0.009932339 0.0211609 0.01599997 -0.008354842 0.02549505 0.01599997 -0.006862401 0.02727371 0.01599997 -0.004999995 0.02866023 0.01599997 0.007660388 0.02642786 0.01599997 0.00597155 0.02802121 0.01599997 0.003960788 0.02918213 0.01599997 0.008936285 0.02448797 0.01599997 0.009730398 0.02230614 0.01599997 -0.002867996 0.02957987 0.01599997 -5.81448e-4 0.02998304 0.01599997 0.001736462 0.02984803 0.01599997 0.004617214 0.002999961 -0.002498686 0.005178391 0.002999961 -8.64121e-4 4.33542e-4 0.002999961 -0.005232036 -0.004965484 0.002999961 -0.001704633 -0.00414294 0.002999961 -0.003224611 0.002108871 0.002999961 -0.00480777 0.003555715 0.002999961 -0.0038625 0.005178391 0.002999961 8.64121e-4 0.004617214 0.002999961 0.002498686 0.003555715 0.002999961 0.0038625 -0.002871453 0.002999961 -0.004395067 -0.001288771 0.002999961 -0.005089342 0.002108871 0.002999961 0.00480777 4.33542e-4 0.002999961 0.005232036 -0.001288771 0.002999961 0.005089342 -0.002871453 0.002999961 0.004395067 -0.00414294 0.002999961 0.003224611 -0.004965484 0.002999961 0.001704633 -0.005249977 0.002999961 0 -0.002871453 0.037 -0.004395067 -0.00414294 0.037 -0.003224611 0.002108871 0.037 0.00480777 0.003555715 0.037 0.0038625 -0.004965484 0.037 -0.001704633 -0.005249977 0.037 0 -0.004965484 0.037 0.001704633 -0.00414294 0.037 0.003224611 0.005178391 0.037 -8.64121e-4 0.004617214 0.037 -0.002498686 0.003555715 0.037 -0.0038625 -0.002871453 0.037 0.004395067 -0.001288771 0.037 0.005089342 4.33542e-4 0.037 0.005232036 0.004617214 0.037 0.002498686 0.005178391 0.037 8.64121e-4 0.005249977 0.037 0 0.002108871 0.037 -0.00480777 4.33542e-4 0.037 -0.005232036 -0.001288771 0.037 -0.005089342 -0.009932339 0.01883906 0.02599996 -0.00999999 0.01999998 0.02599996 -0.009932339 0.0211609 0.02599996 -0.00939691 0.02342015 0.02599996 -0.008354842 0.02549505 0.02599996 -0.006862401 0.02727371 0.02599996 -0.004999995 0.02866023 0.02599996 -0.002867996 0.02957987 0.02599996 -5.81448e-4 0.02998304 0.02599996 0.001736462 0.02984803 0.02599996 0.003960788 0.02918213 0.02599996 0.00597155 0.02802121 0.02599996 0.007660388 0.02642786 0.02599996 0.008936285 0.02448797 0.02599996 0.009730398 0.02230614 0.02599996 0.00999999 0.01999998 0.02599996 0.009730398 0.01769381 0.02599996 0.008936285 0.01551198 0.02599996 0.007660388 0.01357209 0.02599996 0.00597155 0.01197874 0.02599996 0.003960788 0.01081782 0.02599996 0.001736462 0.01015192 0.02599996 -5.81448e-4 0.01001691 0.02599996 -0.002867996 0.01042008 0.02599996 -0.004999995 0.01133972 0.02599996 -0.006862401 0.01272624 0.02599996 -0.008354842 0.0145049 0.02599996 -0.00939691 0.01657974 0.02599996 -0.002499997 0.01999998 0.02599996 -0.002252399 0.02108466 0.02599996 -0.001558721 0.02195453 0.02599996 0.001558721 0.02195453 0.02599996 0.002252399 0.02108466 0.02599996 -5.56302e-4 0.02243727 0.02599996 0.002499997 0.01999998 0.02599996 5.56302e-4 0.02243727 0.02599996 -0.001558721 0.01804542 0.02599996 -0.002252399 0.01891529 0.02599996 0.002252399 0.01891529 0.02599996 0.001558721 0.01804542 0.02599996 5.56302e-4 0.01756262 0.02599996 -5.56302e-4 0.01756262 0.02599996 0.002252399 0.01891529 0.032 0.001558721 0.01804542 0.032 5.56302e-4 0.01756262 0.032 -5.56302e-4 0.01756262 0.032 -0.001558721 0.01804542 0.032 -0.002252399 0.01891529 0.032 -0.002499997 0.01999998 0.032 -0.002252399 0.02108466 0.032 -0.001558721 0.02195453 0.032 -5.56302e-4 0.02243727 0.032 5.56302e-4 0.02243727 0.032 0.001558721 0.02195453 0.032 0.002252399 0.02108466 0.032 0.002499997 0.01999998 0.032 0 0.01999998 0.032</float_array>
          <technique_common>
            <accessor source="#R_Tilt-mesh-positions-array" count="178" stride="3">
              <param name="X" type="float"/>
              <param name="Y" type="float"/>
              <param name="Z" type="float"/>
            </accessor>
          </technique_common>
        </source>
        <source id="R_Tilt-mesh-normals">
          <float_array id="R_Tilt-mesh-normals-array" count="534">-0.6791023 -0.09947788 0.7272719 -0.9998284 1.87483e-7 0.01852601 -0.5773887 -0.5773392 0.577323 0.5773881 -0.5773317 0.5773311 0.9993106 9.65478e-7 0.03712815 0.6606312 -0.1565715 0.7342015 0.6067114 -0.3047001 0.7342066 0.5200971 -0.4364112 0.7341963 0.4054284 -0.544583 0.7342053 -0.1947172 -0.6504057 0.7342055 -0.3394653 -0.5879738 0.7342004 -0.4659155 -0.4938433 0.7341946 0.2689135 -0.6234074 0.7341994 0.1178966 -0.6686158 0.7342026 -0.03947538 -0.6777889 0.7341961 -0.567236 -0.3730791 0.7342039 -0.6379844 -0.232208 0.7342039 -0.5773786 -0.5772977 -0.5773746 0.5773771 -0.5772967 -0.5773771 -0.05498361 -0.7460969 0.6635633 0.1634519 -0.7461048 0.6454542 0.3641778 -0.7460987 0.5574148 0.525437 -0.7460999 0.4089633 -0.2674595 -0.746108 -0.6097445 -0.4509506 -0.7461091 -0.4898622 0.6297645 -0.7460933 0.2161978 0.6658363 -0.7460979 -5.89144e-7 0.6297518 -0.746105 -0.2161946 0.5254403 -0.7460952 -0.4089676 -0.5855821 -0.7461012 0.3169018 -0.4509543 -0.7461033 0.4898676 -0.2674644 -0.7460943 0.6097592 0.364178 -0.7460969 -0.5574171 0.1634503 -0.7461065 -0.6454528 -0.05498546 -0.7460937 -0.6635668 -0.5855885 -0.7460952 -0.316904 -0.6567555 -0.7460978 -0.1095925 -0.6567488 -0.7461037 0.1095926 -0.904538 0.301496 -0.3015146 -0.57738 0.5772909 -0.57738 -0.9045371 -0.3014964 -0.3015171 -0.5773852 0.5773377 0.577328 -0.5773798 -0.5772971 -0.5773741 -0.57738 0.577291 -0.5773798 -0.4509547 0.7461028 0.489868 -0.5855826 0.7461012 0.3169007 0.5773789 0.5772972 -0.5773748 -0.6595771 0.7427731 0.115092 -0.6595856 0.7427653 -0.1150942 0.5773876 0.5773378 0.5773254 -0.5855879 0.7460952 -0.3169053 -0.4509495 0.7461087 -0.4898638 0.1634503 0.746104 0.6454555 -0.05498474 0.7460972 0.6635629 -0.267466 0.7460959 0.6097564 -0.2674582 0.7461084 -0.6097445 -0.05498296 0.7461054 -0.6635539 0.1634536 0.746098 -0.6454617 0.3641788 0.7460972 -0.5574163 0.6297641 0.7460933 0.2161986 0.5254361 0.7460998 0.4089646 0.3641766 0.7460991 0.5574151 0.5254412 0.7460952 -0.4089664 0.6297617 0.746096 -0.2161965 0.6658251 0.7461079 9.47738e-7 0.9045395 -0.301491 -0.3015152 0.577377 -0.5772971 -0.5773768 0.5773751 0.5773066 -0.5773692 0.904538 0.3014932 -0.3015174 -0.6379845 0.2322058 0.7342045 -0.6790975 0.09947615 0.7272765 -0.5672389 0.3730767 0.7342029 -0.4659177 0.4938414 0.7341945 -0.3394677 0.5879724 0.7342004 0.5200951 0.4364134 0.7341965 0.4054262 0.5445846 0.7342053 0.2689112 0.6234084 0.7341994 0.6067096 0.3047031 0.7342067 0.6606309 0.1565744 0.7342011 -0.1947197 0.6504049 0.7342056 -0.03947764 0.6777789 0.7342053 0.1178953 0.6686244 0.7341948 -0.5855826 0.7461012 0.3169007 -0.656757 0.7460963 0.1095927 -0.05498486 0.746097 0.6635631 0.6297641 0.7460933 0.216199 0.5254363 0.7460999 0.4089642 -0.2674655 0.7460943 0.6097586 -0.450955 0.7461032 0.4898669 -0.6567438 0.7461081 -0.1095918 -0.5855898 0.7460933 -0.316906 -0.4509518 0.7461063 -0.4898653 0.3641767 0.7460987 0.5574156 0.1634505 0.7461047 0.6454547 -0.2674586 0.7461073 -0.6097458 -0.05498331 0.7461018 -0.6635578 0.1634551 0.7460933 -0.6454668 0.3641787 0.7460975 -0.5574159 0.5254376 0.7460992 -0.4089638 0.6297622 0.7460955 -0.216197 0.6658251 0.7461079 4.83475e-7 0.3641779 -0.7460993 0.557414 0.5254368 -0.7460997 0.408964 -0.2674597 -0.746107 -0.6097456 -0.4509528 -0.7461065 -0.4898641 0.6297644 -0.7460933 0.2161984 0.665835 -0.7460991 -5.69932e-7 0.629754 -0.7461027 -0.2161961 0.5254365 -0.7460989 -0.4089657 -0.6625333 -0.7360377 0.1389183 -0.5855821 -0.7461012 0.3169016 -0.4509542 -0.7461033 0.4898676 0.3641775 -0.7460974 -0.5574167 0.1634537 -0.7460945 -0.6454657 -0.0549851 -0.7460974 -0.6635627 -0.5855903 -0.7460933 -0.3169051 -0.6625365 -0.7360347 -0.1389186 -0.68601 -0.7275922 2.57958e-7 -0.2674641 -0.7460933 0.6097605 -0.05498361 -0.7460966 0.6635636 0.1634519 -0.7461052 0.6454538 -0.718038 -0.1051759 0.6880112 -0.7197245 -2.75275e-7 0.6942598 -0.7180425 0.1051775 0.6880064 -0.6873318 0.2501698 0.6819019 -0.6111202 0.4019418 0.6818908 -0.501946 0.5320339 0.6819021 -0.3657257 0.6334587 0.6818906 -0.2097785 0.7007156 0.6819024 -0.04252874 0.7302168 0.6818907 0.1270151 0.7203308 0.6819023 0.2897154 0.6716324 0.6818908 0.4367883 0.5867068 0.6819026 0.5603274 0.4701686 0.6818906 0.6536421 0.3282696 0.6819027 0.7117382 0.1686835 0.6818906 0.731443 -1.49153e-6 0.6819026 0.7117375 -0.1686866 0.6818906 0.6536405 -0.3282727 0.6819027 0.5603256 -0.4701708 0.6818906 0.4367865 -0.5867083 0.6819024 0.2897126 -0.6716336 0.6818907 0.1270123 -0.7203312 0.6819024 -0.04253131 -0.7302166 0.6818907 -0.2097816 -0.7007147 0.6819022 -0.3657286 -0.6334571 0.6818907 -0.5019485 -0.5320317 0.6819018 -0.6111221 -0.4019395 0.6818904 -0.6873328 -0.2501672 0.6819019 -0.6490132 -1.34513e-6 0.7607771 -0.5847383 0.2815935 0.7607799 -0.4046503 0.5074136 0.7607823 0.4046425 0.5074078 0.7607903 0.5847253 0.2815901 0.7607914 -0.144418 0.6327321 0.7607848 0.6489961 1.34273e-6 0.7607918 0.1444146 0.6327292 0.760788 -0.4046486 -0.5074154 0.7607819 -0.5847368 -0.2815961 0.7607802 0.584726 -0.281588 0.7607916 0.4046447 -0.5074065 0.7607899 0.1444177 -0.6327283 0.760788 -0.1444159 -0.6327325 0.760785 0.6766414 -0.3258548 0.6602841 0.4682499 -0.5871682 0.6602843 0.1671154 -0.7321864 0.6602843 -0.1671188 -0.7321857 0.6602844 -0.4682534 -0.5871661 0.6602839 -0.6766433 -0.3258519 0.6602837 -0.7510155 1.55654e-6 0.6602846 -0.6766413 0.3258545 0.6602844 -0.4682503 0.5871684 0.6602839 -0.1671156 0.7321863 0.6602845 0.1671186 0.7321856 0.6602845 0.4682526 0.5871666 0.6602839 0.6766426 0.3258518 0.6602843 0.7510156 -1.55654e-6 0.6602846 -2.87475e-7 0 1</float_array>
          <technique_common>
            <accessor source="#R_Tilt-mesh-normals-array" count="178" stride="3">
              <param name="X" type="float"/>
              <param name="Y" type="float"/>
              <param name="Z" type="float"/>
            </accessor>
          </technique_common>
        </source>
        <vertices id="R_Tilt-mesh-vertices">
          <input semantic="POSITION" source="#R_Tilt-mesh-positions"/>
        </vertices>
        <triangles count="360">
          <input semantic="VERTEX" source="#R_Tilt-mesh-vertices" offset="0"/>
          <input semantic="NORMAL" source="#R_Tilt-mesh-normals" offset="1"/>
          <p>0 0 1 1 2 2 3 3 4 4 5 5 5 5 6 6 3 3 3 3 6 6 7 7 3 3 7 7 8 8 9 9 10 10 2 2 2 2 10 10 11 11 8 8 12 12 3 3 3 3 12 12 13 13 3 3 13 13 2 2 2 2 13 13 14 14 2 2 14 14 9 9 11 11 15 15 2 2 2 2 15 15 16 16 2 2 16 16 0 0 17 17 18 18 19 19 19 19 20 20 17 17 17 17 20 20 21 21 17 17 21 21 22 22 3 3 23 23 24 24 22 22 25 25 17 17 17 17 25 25 26 26 17 17 26 26 2 2 2 2 26 26 27 27 2 2 27 27 28 28 29 29 30 30 18 18 18 18 30 30 31 31 18 18 31 31 19 19 28 28 32 32 2 2 2 2 32 32 33 33 2 2 33 33 3 3 3 3 33 33 34 34 3 3 34 34 23 23 24 24 35 35 3 3 3 3 35 35 36 36 3 3 36 36 18 18 18 18 36 36 37 37 18 18 37 37 29 29 38 38 39 39 17 17 17 17 2 2 38 38 38 38 2 2 1 1 38 38 1 1 40 40 40 40 1 1 41 41 40 40 41 41 42 42 42 42 41 41 43 43 44 44 45 45 46 46 45 45 47 47 46 46 46 46 47 47 48 48 46 46 48 48 49 49 49 49 48 48 50 50 49 49 50 50 51 51 43 43 52 52 53 53 43 43 53 53 46 46 46 46 53 53 54 54 46 46 54 54 44 44 51 51 55 55 49 49 49 49 55 55 56 56 49 49 56 56 41 41 41 41 56 56 57 57 41 41 57 57 58 58 59 59 60 60 43 43 43 43 60 60 61 61 43 43 61 61 52 52 58 58 62 62 41 41 41 41 62 62 63 63 41 41 63 63 43 43 43 43 63 63 64 64 43 43 64 64 59 59 65 65 66 66 46 46 18 18 67 67 3 3 3 3 67 67 68 68 3 3 68 68 4 4 4 4 68 68 65 65 4 4 65 65 49 49 49 49 65 65 46 46 68 68 38 38 65 65 65 65 38 38 40 40 69 69 41 41 70 70 70 70 41 41 1 1 69 69 71 71 41 41 41 41 71 71 72 72 41 41 72 72 73 73 74 74 49 49 75 75 75 75 49 49 76 76 74 74 77 77 49 49 49 49 77 77 78 78 49 49 78 78 4 4 73 73 79 79 41 41 41 41 79 79 80 80 41 41 80 80 49 49 49 49 80 80 81 81 49 49 81 81 76 76 82 82 83 83 67 67 67 67 83 83 68 68 84 84 67 67 39 39 85 85 86 86 39 39 84 84 87 87 67 67 67 67 87 87 88 88 67 67 88 88 82 82 83 83 89 89 68 68 68 68 89 89 90 90 68 68 90 90 91 91 86 86 92 92 39 39 39 39 92 92 93 93 39 39 93 93 84 84 91 91 94 94 68 68 68 68 94 94 95 95 68 68 95 95 38 38 38 38 95 95 96 96 38 38 96 96 97 97 97 97 98 98 38 38 38 38 98 98 99 99 38 38 99 99 39 39 39 39 99 99 100 100 39 39 100 100 85 85 39 39 67 67 17 17 17 17 67 67 18 18 101 101 102 102 42 42 65 65 103 103 104 104 102 102 105 105 42 42 42 42 105 105 106 106 42 42 106 106 40 40 40 40 106 106 107 107 40 40 107 107 108 108 109 109 110 110 66 66 66 66 110 110 111 111 108 108 112 112 40 40 40 40 112 112 113 113 40 40 113 113 65 65 65 65 113 113 114 114 65 65 114 114 103 103 104 104 115 115 65 65 65 65 115 115 116 116 65 65 116 116 66 66 66 66 116 116 117 117 66 66 117 117 109 109 111 111 118 118 66 66 66 66 118 118 119 119 66 66 119 119 42 42 42 42 119 119 120 120 42 42 120 120 101 101 66 66 42 42 46 46 46 46 42 42 43 43 110 110 109 109 47 47 47 47 109 109 117 117 47 47 117 117 48 48 48 48 117 117 116 116 48 48 116 116 50 50 50 50 116 116 115 115 50 50 115 115 51 51 51 51 115 115 104 104 51 51 104 104 55 55 55 55 104 104 103 103 55 55 103 103 56 56 56 56 103 103 114 114 56 56 114 114 57 57 57 57 114 114 113 113 57 57 113 113 58 58 58 58 113 113 112 112 58 58 112 112 62 62 62 62 112 112 108 108 62 62 108 108 63 63 63 63 108 108 107 107 63 63 107 107 64 64 64 64 107 107 106 106 64 64 106 106 59 59 59 59 106 106 105 105 59 59 105 105 60 60 60 60 105 105 102 102 60 60 102 102 61 61 61 61 102 102 101 101 61 61 101 101 52 52 52 52 101 101 120 120 52 52 120 120 53 53 53 53 120 120 119 119 53 53 119 119 54 54 54 54 119 119 118 118 54 54 118 118 44 44 44 44 118 118 111 111 44 44 111 111 45 45 45 45 111 111 110 110 45 45 110 110 47 47 100 100 26 26 85 85 85 85 26 26 25 25 85 85 25 25 86 86 86 86 25 25 22 22 86 86 22 22 92 92 92 92 22 22 21 21 92 92 21 21 93 93 93 93 21 21 20 20 93 93 20 20 84 84 84 84 20 20 19 19 84 84 19 19 87 87 87 87 19 19 31 31 87 87 31 31 88 88 88 88 31 31 30 30 88 88 30 30 82 82 82 82 30 30 29 29 82 82 29 29 83 83 83 83 29 29 37 37 83 83 37 37 89 89 89 89 37 37 36 36 89 89 36 36 90 90 90 90 36 36 35 35 90 90 35 35 91 91 91 91 35 35 24 24 91 91 24 24 94 94 94 94 24 24 23 23 94 94 23 23 95 95 95 95 23 23 34 34 95 95 34 34 96 96 96 96 34 34 33 33 96 96 33 33 97 97 97 97 33 33 32 32 97 97 32 32 98 98 98 98 32 32 28 28 98 98 28 28 99 99 99 99 28 28 27 27 99 99 27 27 100 100 100 100 27 27 26 26 121 121 122 122 1 1 1 1 122 122 70 70 122 122 123 123 70 70 70 70 123 123 124 124 70 70 124 124 69 69 69 69 124 124 125 125 69 69 125 125 71 71 71 71 125 125 126 126 71 71 126 126 72 72 72 72 126 126 127 127 72 72 127 127 73 73 73 73 127 127 128 128 73 73 128 128 79 79 79 79 128 128 129 129 79 79 129 129 80 80 80 80 129 129 130 130 80 80 130 130 81 81 81 81 130 130 131 131 81 81 131 131 76 76 76 76 131 131 132 132 76 76 132 132 75 75 75 75 132 132 133 133 75 75 133 133 74 74 74 74 133 133 134 134 74 74 134 134 77 77 77 77 134 134 135 135 77 77 135 135 78 78 78 78 135 135 136 136 78 78 136 136 4 4 4 4 136 136 137 137 4 4 137 137 5 5 5 5 137 137 138 138 5 5 138 138 6 6 6 6 138 138 139 139 6 6 139 139 7 7 7 7 139 139 140 140 7 7 140 140 8 8 8 8 140 140 141 141 8 8 141 141 12 12 12 12 141 141 142 142 12 12 142 142 13 13 13 13 142 142 143 143 13 13 143 143 14 14 14 14 143 143 144 144 14 14 144 144 9 9 9 9 144 144 145 145 9 9 145 145 10 10 10 10 145 145 146 146 10 10 146 146 11 11 11 11 146 146 147 147 11 11 147 147 15 15 15 15 147 147 148 148 15 15 148 148 16 16 16 16 148 148 121 121 16 16 121 121 0 0 0 0 121 121 1 1 123 123 149 149 150 150 151 151 125 125 150 150 150 150 125 125 124 124 150 150 124 124 123 123 133 133 152 152 153 153 154 154 127 127 151 151 151 151 127 127 126 126 151 151 126 126 125 125 155 155 135 135 153 153 153 153 135 135 134 134 153 153 134 134 133 133 156 156 129 129 154 154 154 154 129 129 128 128 154 154 128 128 127 127 133 133 132 132 152 152 152 152 132 132 131 131 152 152 131 131 156 156 156 156 131 131 130 130 156 156 130 130 129 129 157 157 158 158 147 147 123 123 122 122 149 149 149 149 122 122 121 121 149 149 121 121 158 158 158 158 121 121 148 148 158 158 148 148 147 147 159 159 137 137 155 155 155 155 137 137 136 136 155 155 136 136 135 135 160 160 139 139 159 159 159 159 139 139 138 138 159 159 138 138 137 137 161 161 141 141 160 160 160 160 141 141 140 140 160 160 140 140 139 139 162 162 143 143 161 161 161 161 143 143 142 142 161 161 142 142 141 141 147 147 146 146 157 157 157 157 146 146 145 145 157 157 145 145 162 162 162 162 145 145 144 144 162 162 144 144 143 143 155 155 163 163 159 159 159 159 163 163 164 164 159 159 164 164 160 160 160 160 164 164 165 165 160 160 165 165 161 161 161 161 165 165 166 166 161 161 166 166 162 162 162 162 166 166 167 167 162 162 167 167 157 157 157 157 167 167 168 168 157 157 168 168 158 158 158 158 168 168 169 169 158 158 169 169 149 149 149 149 169 169 170 170 149 149 170 170 150 150 150 150 170 170 171 171 150 150 171 171 151 151 151 151 171 171 172 172 151 151 172 172 154 154 154 154 172 172 173 173 154 154 173 173 156 156 156 156 173 173 174 174 156 156 174 174 152 152 152 152 174 174 175 175 152 152 175 175 153 153 153 153 175 175 176 176 153 153 176 176 155 155 155 155 176 176 163 163 169 169 168 168 177 177 169 169 177 177 170 170 173 173 172 172 177 177 177 177 172 172 171 171 177 177 171 171 170 170 176 176 175 175 177 177 177 177 175 175 174 174 177 177 174 174 173 173 165 165 164 164 177 177 177 177 164 164 163 163 177 177 163 163 176 176 168 168 167 167 177 177 177 177 167 167 166 166 177 177 166 166 165 165</p>
        </triangles>
      </mesh>
    </geometry>
  </library_geometries>
  <library_visual_scenes>
    <visual_scene id="Scene" name="Scene">
      <node id="R_Tilt" name="R_Tilt" type="NODE">
        <matrix sid="transform">1 0 0 0 0 1 0 0 0 0 1 0 0 0 0 1</matrix>
        <instance_geometry url="#R_Tilt-mesh" name="R_Tilt"/>
      </node>
    </visual_scene>
  </library_visual_scenes>
  <scene>
    <instance_visual_scene url="#Scene"/>
  </scene>
</COLLADA>